HIERARCHY
ROOT Hips
{
 OFFSET 0.000000 0.000000 0.000000
 CHANNELS 6 Xposition Yposition Zposition Yrotation Xrotation Zrotation
 JOINT Chest
 {
  OFFSET 0.000000 9.585900 0.002600
  CHANNELS 3 Yrotation Xrotation Zrotation
  JOINT Chest2
  {
   OFFSET 0.000000 9.601200 -0.005300
   CHANNELS 3 Yrotation Xrotation Zrotation
   JOINT Chest3
   {
    OFFSET 0.000000 9.561800 0.000000
    CHANNELS 3 Yrotation Xrotation Zrotation
    JOINT Chest4
    {
     OFFSET 0.000000 9.552100 0.000000
     CHANNELS 3 Yrotation Xrotation Zrotation
     JOINT Neck
     {
      OFFSET 0.000000 14.453000 0.000000
      CHANNELS 3 Yrotation Xrotation Zrotation
      JOINT Head
      {
       OFFSET 0.000000 8.936500 -0.011300
       CHANNELS 3 Yrotation Xrotation Zrotation
       End Site
       {
        OFFSET 0.000000 17.073600 -0.006000
       }
      }
     }
     JOINT RightCollar
     {
      OFFSET -2.921100 9.558500 0.000000
      CHANNELS 3 Yrotation Xrotation Zrotation
      JOINT RightShoulder
      {
       OFFSET -13.519700 0.000000 0.000000
       CHANNELS 3 Yrotation Xrotation Zrotation
       JOINT RightElbow
       {
        OFFSET 0.000000 -29.696600 0.000000
        CHANNELS 3 Yrotation Xrotation Zrotation
        JOINT RightWrist
        {
         OFFSET 0.000000 -24.004700 0.000000
         CHANNELS 3 Yrotation Xrotation Zrotation
         End Site
         {
          OFFSET 0.000000 -17.728500 0.000000
         }
        }
       }
      }
     }
     JOINT LeftCollar
     {
      OFFSET 2.921100 9.558500 0.000000
      CHANNELS 3 Yrotation Xrotation Zrotation
      JOINT LeftShoulder
      {
       OFFSET 13.519700 0.000000 0.000000
       CHANNELS 3 Yrotation Xrotation Zrotation
       JOINT LeftElbow
       {
        OFFSET 0.000000 -29.696600 0.000000
        CHANNELS 3 Yrotation Xrotation Zrotation
        JOINT LeftWrist
        {
         OFFSET 0.000000 -24.004700 0.000000
         CHANNELS 3 Yrotation Xrotation Zrotation
         End Site
         {
          OFFSET 0.000000 -17.728500 0.000000
         }
        }
       }
      }
     }
    }
   }
  }
 }
 JOINT RightHip
 {
  OFFSET -7.771700 -0.012900 -0.001300
  CHANNELS 3 Yrotation Xrotation Zrotation
  JOINT RightKnee
  {
   OFFSET 0.000000 -40.869800 0.001200
   CHANNELS 3 Yrotation Xrotation Zrotation
   JOINT RightAnkle
   {
    OFFSET 0.000000 -39.717900 0.002100
    CHANNELS 3 Yrotation Xrotation Zrotation
    JOINT RightToe
    {
     OFFSET 0.000000 -4.965400 11.033500
     CHANNELS 3 Yrotation Xrotation Zrotation
     End Site
     {
      OFFSET 0.000000 -1.423100 5.872300
     }
    }
   }
  }
 }
 JOINT LeftHip
 {
  OFFSET 7.771700 -0.012900 -0.001300
  CHANNELS 3 Yrotation Xrotation Zrotation
  JOINT LeftKnee
  {
   OFFSET 0.000000 -40.869800 0.001200
   CHANNELS 3 Yrotation Xrotation Zrotation
   JOINT LeftAnkle
   {
    OFFSET 0.000000 -39.717900 0.002100
    CHANNELS 3 Yrotation Xrotation Zrotation
    JOINT LeftToe
    {
     OFFSET 0.000000 -4.965400 11.033500
     CHANNELS 3 Yrotation Xrotation Zrotation
     End Site
     {
      OFFSET 0.000000 -1.423100 5.872300
     }
    }
   }
  }
 }
}
MOTION
Frames: 12
Frame Time: 0.008333
0.000000 85.388000 0.000000 0.000000 -5.767877 0.000000 0.000000 11.653817 0.000000 0.000000 -5.885947 0.000000 0.000000 -0.000000 0.000000 0.000000 -0.000000 0.000000 0.000000 12.528835 0.000000 0.000000 0.711642 0.000000 0.000000 -0.000000 0.000000 0.000000 0.000000 -90.000000 0.000000 -2.309062 0.000000 0.000000 2.309062 0.000000 0.000000 -0.000000 0.000000 0.000000 -0.000000 90.000000 0.000000 -2.309062 0.000000 0.000000 2.309062 0.000000 0.000000 8.520406 0.000000 0.000000 1.905762 0.000000 -0.000000 -4.658285 0.000000 0.000000 -0.000000 0.000000 0.000000 8.520406 0.000000 0.000000 1.905762 0.000000 -0.000000 -4.658285 0.000000 0.000000 -0.000000 0.000000
-29.355093 51.956434 26.540406 179.627618 -27.806846 -1.972329 -1.430954 22.774030 -1.810639 -0.154952 3.266514 -0.150378 -0.255442 5.285799 -0.248090 -1.088417 19.200917 -1.049295 -2.527097 18.499532 -3.008384 -2.027119 -6.228229 -2.598509 10.056545 9.774505 11.120144 55.938373 -11.529740 -51.864680 152.543112 -38.477486 175.778985 2.679887 -0.817092 -34.756483 -11.337891 12.778053 -17.476453 -20.257264 -7.673537 46.846829 151.094309 -45.879953 -102.655091 28.892617 -16.339815 -9.296339 -11.621024 -54.014493 4.278517 -56.897077 80.651432 -65.407698 -4.285171 -5.242492 6.467898 0.333298 -0.800630 0.093774 2.275890 -53.258337 -0.534846 32.709209 84.590027 37.493566 -1.981559 -9.962508 -0.642980 0.218681 0.394598 0.082152
-29.360842 51.953669 26.527689 179.626860 -27.813581 -1.969318 -1.426242 22.795919 -1.816646 -0.153630 3.269078 -0.149798 -0.253308 5.289820 -0.247090 -1.064542 19.235553 -1.044234 -2.537863 18.485449 -2.992671 -2.046066 -6.247583 -2.581217 10.046389 9.795366 11.131375 55.811983 -11.538764 -51.792204 152.514424 -38.620894 175.778374 2.669070 -0.615032 -34.602857 -11.375983 12.763028 -17.499776 -20.334589 -7.625362 46.829874 151.255590 -45.944175 -102.975615 28.848850 -16.264436 -9.362321 -11.598971 -54.008630 4.202954 -56.859408 80.690720 -65.335803 -4.214533 -5.264905 6.476430 0.263297 -0.777585 0.080258 2.267341 -53.255324 -0.557297 32.897726 84.608040 37.698892 -1.960742 -9.975614 -0.664495 0.223894 0.387924 0.083729
-29.363864 51.950055 26.515078 179.626532 -27.809008 -1.985692 -1.388718 22.856220 -1.800392 -0.166958 3.242015 -0.142191 -0.226925 5.345565 -0.247187 -1.028750 19.263815 -1.018130 -2.592433 18.403694 -2.971114 -2.074222 -6.271921 -2.562585 10.011373 9.751574 11.138995 55.676571 -11.537136 -51.726073 152.514854 -38.761075 175.759456 2.643235 -0.478767 -34.349872 -11.451328 12.681302 -17.513894 -20.428494 -7.573693 46.816718 151.419111 -46.006368 -103.274483 28.808399 -16.210392 -9.431516 -11.618103 -54.009077 4.206124 -56.901636 80.702866 -65.359836 -4.199360 -5.269168 6.468944 0.257367 -0.772098 0.083175 2.228103 -53.266066 -0.544963 33.083078 84.629781 37.900913 -1.937686 -9.994142 -0.679535 0.219708 0.386766 0.079492
-29.366905 51.946263 26.502261 179.621249 -27.799250 -1.999953 -1.368857 22.863381 -1.781469 -0.157236 3.264478 -0.144240 -0.220408 5.351702 -0.243009 -1.009160 19.276688 -1.002633 -2.626272 18.363991 -2.962645 -2.109616 -6.284025 -2.540059 10.023821 9.765504 11.153610 55.528791 -11.527619 -51.661113 152.540116 -38.903397 175.718146 2.598752 -0.403985 -33.979898 -11.497876 12.654898 -17.552445 -20.536567 -7.522053 46.804849 151.579174 -46.058216 -103.556867 28.772451 -16.175888 -9.501607 -11.637726 -54.014489 4.226457 -56.977387 80.704932 -65.424902 -4.202531 -5.271081 6.456510 0.270258 -0.762755 0.095685 2.189720 -53.281371 -0.527676 33.246303 84.652647 38.076059 -1.912676 -10.014667 -0.694101 0.201597 0.387385 0.082336
-29.373145 51.942323 26.489914 179.630260 -27.782782 -1.999583 -1.370048 22.863384 -1.784731 -0.145743 3.285611 -0.144704 -0.216187 5.356740 -0.240977 -0.990376 19.288974 -0.985396 -2.661297 18.326650 -2.955470 -2.159427 -6.299061 -2.514153 10.048096 9.776944 11.167589 55.367553 -11.519551 -51.591248 152.589390 -39.053131 175.656604 2.527791 -0.383779 -33.477147 -11.540117 12.629348 -17.592211 -20.654453 -7.474120 46.787800 151.735856 -46.096514 -103.823880 28.745507 -16.147194 -9.572830 -11.639406 -54.028500 4.190725 -56.983967 80.722713 -65.416629 -4.171259 -5.281411 6.451308 0.246623 -0.747334 0.094770 2.152169 -53.302007 -0.545883 33.604767 84.654230 38.436826 -1.884022 -10.019684 -0.698834 0.184439 0.378826 0.065850
-29.373087 51.938339 26.479346 179.623977 -27.756465 -2.025552 -1.334570 22.868688 -1.753615 -0.143041 3.290537 -0.142049 -0.212108 5.360695 -0.236956 -0.972094 19.300009 -0.968488 -2.700092 18.305036 -2.942542 -2.219359 -6.327811 -2.492686 10.080024 9.787811 11.183801 55.191990 -11.515909 -51.513889 152.670047 -39.203248 175.577343 2.417241 -0.419184 -32.837659 -11.574658 12.603790 -17.630946 -20.773054 -7.430663 46.762968 151.884891 -46.119630 -104.075754 28.734552 -16.114157 -9.655324 -11.672270 -54.048882 4.219849 -57.030105 80.734579 -65.448003 -4.121202 -5.300307 6.453354 0.204230 -0.723066 0.084570 2.113335 -53.334407 -0.505631 33.723399 84.671674 38.562223 -1.862120 -10.022938 -0.692592 0.170941 0.367969 0.051629
-29.374744 51.935505 26.467845 179.628409 -27.738810 -2.040395 -1.314302 22.878599 -1.738732 -0.120831 3.328278 -0.144961 -0.239765 5.315771 -0.225994 -0.942057 19.328444 -0.955656 -2.747299 18.282907 -2.931506 -2.285105 -6.355167 -2.467824 10.115504 9.798870 11.203597 54.996111 -11.515150 -51.430922 152.794812 -39.338391 175.470832 2.249303 -0.501528 -32.066910 -11.602517 12.576616 -17.671083 -20.886892 -7.392745 46.733351 152.023338 -46.124734 -104.316467 28.735769 -16.071928 -9.756327 -11.683512 -54.059658 4.218371 -57.066379 80.743804 -65.469951 -4.096200 -5.310468 6.454689 0.186551 -0.717423 0.079819 2.088747 -53.357245 -0.495169 33.815578 84.692804 38.667913 -1.857724 -10.038292 -0.700822 0.168162 0.368499 0.058469
-29.372010 51.933062 26.457441 179.618467 -27.719099 -2.068159 -1.253563 22.919633 -1.700372 -0.135408 3.301521 -0.135731 -0.250336 5.302946 -0.223243 -0.910503 19.353888 -0.942311 -2.825137 18.280871 -2.916949 -2.333576 -6.404008 -2.451932 10.154039 9.813345 11.224672 54.766755 -11.523170 -51.346892 152.995951 -39.452800 175.316223 2.031131 -0.602679 -31.196446 -11.625508 12.549321 -17.711963 -20.999298 -7.365152 46.698911 152.148464 -46.111948 -104.544998 28.740890 -16.018956 -9.866112 -11.706395 -54.068754 4.252712 -57.066100 80.752333 -65.454718 -4.072180 -5.307411 6.457478 0.162274 -0.719173 0.072516 2.059019 -53.384713 -0.465876 33.907144 84.723721 38.793032 -1.842795 -10.062642 -0.717658 0.186860 0.370145 0.051609
-29.372474 51.930493 26.448275 179.623730 -27.694734 -2.076939 -1.239545 22.918593 -1.690073 -0.126921 3.311047 -0.135607 -0.246782 5.307648 -0.218396 -0.895635 19.358965 -0.928954 -2.881287 18.253450 -2.907703 -2.410192 -6.425004 -2.423360 10.193889 9.834491 11.247489 54.500357 -11.543389 -51.265923 153.287011 -39.556710 175.116505 1.777917 -0.703865 -30.284963 -11.643030 12.522950 -17.752305 -21.113207 -7.350474 46.658587 152.257094 -46.087378 -104.759608 28.743638 -15.957092 -9.968514 -11.712333 -54.086659 4.253615 -57.078227 80.758756 -65.457827 -4.065523 -5.314085 6.453108 0.150426 -0.681409 0.074397 2.049313 -53.412060 -0.473027 34.053701 84.731367 38.952862 -1.828816 -10.072629 -0.724832 0.174360 0.370396 0.053162
-29.372256 51.929385 26.437458 179.647128 -27.685676 -2.091534 -1.253380 22.918264 -1.685055 -0.105655 3.334214 -0.139822 -0.246232 5.312695 -0.212544 -0.889958 19.353043 -0.917301 -2.915774 18.228479 -2.901819 -2.502429 -6.439314 -2.387944 10.241447 9.871185 11.273078 54.206763 -11.569971 -51.191539 153.640495 -39.657725 174.898255 1.488891 -0.789893 -29.388672 -11.646216 12.504971 -17.794387 -21.224543 -7.345707 46.609346 152.355500 -46.060421 -104.970267 28.740953 -15.893404 -10.055839 -11.703931 -54.084763 4.235785 -57.140371 80.767936 -65.506270 -4.069548 -5.352057 6.459019 0.145933 -0.648310 0.075588 2.025249 -53.424134 -0.478101 34.158840 84.742455 39.069673 -1.824116 -10.079544 -0.726646 0.168984 0.367904 0.051313
-29.368081 51.926771 26.430732 179.658269 -27.654170 -2.118581 -1.227938 22.917147 -1.657902 -0.116900 3.320457 -0.135289 -0.198787 5.363514 -0.216310 -0.935509 19.297455 -0.899492 -2.953547 18.233451 -2.895514 -2.524446 -6.461672 -2.381467 10.308276 9.931461 11.301183 53.899112 -11.596672 -51.126891 154.034371 -39.754734 174.667255 1.189565 -0.832039 -28.543207 -11.634631 12.502057 -17.828410 -21.287892 -7.340031 46.594417 152.395156 -45.982677 -105.129025 28.735715 -15.841004 -10.131230 -11.726278 -54.105423 4.270358 -57.188149 80.763984 -65.542365 -4.075912 -5.368183 6.459531 0.150440 -0.629007 0.076770 1.983318 -53.462643 -0.448023 34.281176 84.754956 39.202823 -1.815611 -10.092430 -0.734717 0.155547 0.370409 0.056229
